<?xml version="1.0" encoding="utf-8"?>
<!-- Generator: Adobe Illustrator 22.0.1, SVG Export Plug-In . SVG Version: 6.00 Build 0)  -->
<svg version="1.1" id="Camada_1" xmlns="http://www.w3.org/2000/svg" xmlns:xlink="http://www.w3.org/1999/xlink" x="0px" y="0px"
	 viewBox="0 0 800 600" style="enable-background:new 0 0 800 600;" xml:space="preserve">
<style type="text/css">
	.st0{fill:#373974;}
	.st1{fill:none;stroke:#373974;stroke-width:2;stroke-miterlimit:10;}
</style>
<g>
	<g id="_x33_4">
		<g>
			<path d="M24.6,125c-0.2,0-0.4,0.2-0.4,0.4v2l-3.1,1.6c-0.4-0.5-1.1-0.9-1.8-0.9c-1.3,0-2.3,1-2.3,2.3c0,0.8,0.4,1.5,1,1.9l-1,2.3
				c-0.2,0-0.4-0.1-0.6-0.1c-1.3,0-2.3,1-2.3,2.3c0,0.2,0,0.4,0.1,0.6l-2.3,1c-0.4-0.6-1.1-1-1.9-1c-1.3,0-2.3,1-2.3,2.3
				c0,0.8,0.4,1.5,1,1.9l-1.2,2.5h-2c-0.2,0-0.4,0.2-0.4,0.4s0.2,0.4,0.4,0.4h18.1c0.8,0,1.5-0.7,1.5-1.5v-18.1
				C25,125.2,24.8,125,24.6,125z M19.3,128.9c0.6,0,1.1,0.3,1.3,0.8l0,0l0,0c0.1,0.2,0.2,0.4,0.2,0.7c0,0.8-0.7,1.5-1.5,1.5
				s-1.5-0.7-1.5-1.5S18.5,128.9,19.3,128.9z M16.4,135.4c0.8,0,1.5,0.7,1.5,1.5s-0.7,1.5-1.5,1.5s-1.5-0.7-1.5-1.5
				C14.9,136.1,15.6,135.4,16.4,135.4z M10,138.3c0.8,0,1.5,0.7,1.5,1.5s-0.7,1.5-1.5,1.5c-0.2,0-0.4-0.1-0.6-0.1l0,0l0,0
				c-0.5-0.2-0.9-0.8-0.9-1.4C8.4,138.9,9.1,138.3,10,138.3z M23.5,144.2H8.3l1-2.2c0.2,0.1,0.4,0.1,0.6,0.1c1.3,0,2.3-1,2.3-2.3
				c0-0.2,0-0.4-0.1-0.6l2.3-1c0.4,0.6,1.1,1,1.9,1c1.3,0,2.3-1,2.3-2.3c0-0.8-0.4-1.5-1-1.9l1-2.3c0.2,0,0.4,0.1,0.6,0.1
				c1.3,0,2.3-1,2.3-2.3c0-0.2,0-0.5-0.1-0.7l2.7-1.4v15.1C24.2,143.9,23.9,144.2,23.5,144.2z"/>
		</g>
	</g>
</g>
<g>
	<g>
		<path d="M51.5,125H36c-0.2,0-0.5,0.2-0.5,0.5v9h-4.1c-0.2,0-0.5,0.2-0.5,0.5v7.6c0,1.5,1.2,2.7,2.7,2.7h15.5
			c1.5,0,2.7-1.2,2.7-2.7v-17.1C52,125.2,51.8,125,51.5,125z M31.9,142.5v-7.2h3.7v7.2c0,1-0.8,1.8-1.8,1.8
			C32.7,144.3,31.9,143.5,31.9,142.5z M51.1,142.5c0,1-0.8,1.8-1.8,1.8H35.8c0.4-0.5,0.7-1.1,0.7-1.8v-16.6h14.6V142.5L51.1,142.5z"
			/>
		<path d="M43.2,130.2H49c0.2,0,0.5-0.2,0.5-0.5c0-0.2-0.2-0.5-0.5-0.5h-5.8c-0.2,0-0.5,0.2-0.5,0.5S42.9,130.2,43.2,130.2z"/>
		<path d="M43.2,135.2H49c0.2,0,0.5-0.2,0.5-0.5s-0.2-0.5-0.5-0.5h-5.8c-0.2,0-0.5,0.2-0.5,0.5S42.9,135.2,43.2,135.2z"/>
		<path d="M43.2,140.1H49c0.2,0,0.5-0.2,0.5-0.5s-0.2-0.5-0.5-0.5h-5.8c-0.2,0-0.5,0.2-0.5,0.5C42.7,139.9,42.9,140.1,43.2,140.1z"
			/>
		<path d="M39,130.7c0.1,0.1,0.2,0.1,0.3,0.1l0,0c0.1,0,0.2-0.1,0.3-0.1l2.5-2.7c0.2-0.2,0.2-0.5,0-0.6c-0.2-0.2-0.5-0.2-0.6,0
			l-2.2,2.4l-0.7-0.7c-0.2-0.2-0.5-0.2-0.6,0c-0.2,0.2-0.2,0.5,0,0.6L39,130.7z"/>
		<path d="M41.5,132.6l-2.2,2.4l-0.7-0.7c-0.2-0.2-0.5-0.2-0.6,0c-0.2,0.2-0.2,0.5,0,0.6l1,1.1c0.1,0.1,0.2,0.1,0.3,0.1l0,0
			c0.1,0,0.2-0.1,0.3-0.1l2.5-2.7c0.2-0.2,0.2-0.5,0-0.6C41.9,132.4,41.6,132.4,41.5,132.6z"/>
		<path d="M41.5,137.7l-2.2,2.4l-0.7-0.7c-0.2-0.2-0.5-0.2-0.6,0c-0.2,0.2-0.2,0.5,0,0.6l1,1.1c0.1,0.1,0.2,0.1,0.3,0.1l0,0
			c0.1,0,0.2-0.1,0.3-0.1l2.5-2.7c0.2-0.2,0.2-0.5,0-0.6C41.9,137.5,41.6,137.5,41.5,137.7z"/>
	</g>
</g>
<polygon points="73.5,133.1 65.4,133.1 65.4,125 64.6,125 64.6,133.1 56.5,133.1 56.5,133.9 64.6,133.9 64.6,142 65.4,142 
	65.4,133.9 73.5,133.9 "/>
<g>
	<path d="M97.9,131.6h-2.1c-0.3,0-0.6-0.2-0.7-0.5s-0.1-0.6,0.2-0.9l1.5-1.5c0.2-0.2,0.3-0.5,0.3-0.8s-0.1-0.6-0.3-0.8l-1.9-1.9
		c-0.4-0.4-1.2-0.4-1.6,0l-1.5,1.5c-0.2,0.2-0.6,0.3-0.9,0.2c-0.3-0.1-0.5-0.4-0.5-0.7v-2.1c0-0.6-0.5-1.1-1.1-1.1h-2.6
		c-0.6,0-1.1,0.5-1.1,1.1v2.1c0,0.3-0.2,0.6-0.5,0.7s-0.6,0.1-0.9-0.2l-1.5-1.5c-0.4-0.4-1.2-0.4-1.6,0l-1.9,1.9
		c-0.2,0.2-0.3,0.5-0.3,0.8s0.1,0.6,0.3,0.8l1.5,1.5c0.2,0.2,0.3,0.6,0.2,0.9s-0.4,0.5-0.7,0.5h-2.1c-0.6,0-1.1,0.5-1.1,1.1v2.6
		c0,0.6,0.5,1.1,1.1,1.1h2.1c0.3,0,0.6,0.2,0.7,0.5s0.1,0.6-0.2,0.9l-1.5,1.5c-0.2,0.2-0.3,0.5-0.3,0.8s0.1,0.6,0.3,0.8l1.9,1.9
		c0.4,0.4,1.2,0.4,1.6,0l1.5-1.5c0.2-0.2,0.6-0.3,0.9-0.2s0.5,0.4,0.5,0.7v2.1c0,0.6,0.5,1.1,1.1,1.1h2.6c0.6,0,1.1-0.5,1.1-1.1
		v-2.1c0-0.3,0.2-0.6,0.5-0.7c0.3-0.1,0.6-0.1,0.9,0.2l1.5,1.5c0.4,0.4,1.2,0.4,1.6,0l1.9-1.9c0.2-0.2,0.3-0.5,0.3-0.8
		s-0.1-0.6-0.3-0.8l-1.5-1.5c-0.2-0.2-0.3-0.6-0.2-0.9s0.4-0.5,0.7-0.5h2.1c0.6,0,1.1-0.5,1.1-1.1v-2.6
		C99,132.1,98.5,131.6,97.9,131.6z M98.2,135.3c0,0.2-0.1,0.3-0.3,0.3h-2.1c-0.7,0-1.2,0.4-1.5,1s-0.1,1.3,0.3,1.7l1.5,1.5
		c0.1,0.1,0.1,0.3,0,0.4l-1.9,1.9c-0.1,0.1-0.3,0.1-0.4,0l-1.5-1.5c-0.5-0.5-1.1-0.6-1.7-0.3s-1,0.8-1,1.5v2.1
		c0,0.2-0.1,0.3-0.3,0.3h-2.6c-0.2,0-0.3-0.1-0.3-0.3v-2.1c0-0.7-0.4-1.2-1-1.5c-0.2-0.1-0.4-0.1-0.6-0.1c-0.4,0-0.8,0.2-1.1,0.5
		l-1.5,1.5c-0.1,0.1-0.3,0.1-0.4,0l-1.9-1.9c-0.1-0.1-0.1-0.3,0-0.4l1.5-1.5c0.5-0.5,0.6-1.1,0.3-1.7c-0.3-0.6-0.8-1-1.5-1h-2.1
		c-0.2,0-0.3-0.1-0.3-0.3v-2.6c0-0.2,0.1-0.3,0.3-0.3h2.1c0.7,0,1.2-0.4,1.5-1s0.1-1.3-0.3-1.7l-1.5-1.5c-0.1-0.1-0.1-0.3,0-0.4
		l1.9-1.9c0.1-0.1,0.3-0.1,0.4,0l1.5,1.5c0.5,0.5,1.1,0.6,1.7,0.3s1-0.8,1-1.5v-2.1c0-0.2,0.1-0.3,0.3-0.3h2.6
		c0.2,0,0.3,0.1,0.3,0.3v2.1c0,0.7,0.4,1.2,1,1.5s1.3,0.1,1.7-0.3l1.5-1.5c0.1-0.1,0.3-0.1,0.4,0l1.9,1.9c0.1,0.1,0.1,0.3,0,0.4
		l-1.5,1.5c-0.5,0.5-0.6,1.1-0.3,1.7c0.3,0.6,0.8,1,1.5,1h2.1c0.2,0,0.3,0.1,0.3,0.3V135.3z"/>
	<path d="M88,130.3c-2,0-3.7,1.6-3.7,3.7s1.6,3.7,3.7,3.7s3.7-1.6,3.7-3.7S90,130.3,88,130.3z M88,136.9c-1.6,0-2.9-1.3-2.9-2.9
		s1.3-2.9,2.9-2.9s2.9,1.3,2.9,2.9S89.6,136.9,88,136.9z"/>
</g>
<path class="st0" d="M11.1,3.6c0.3-0.3,0.8-0.3,1.1,0s0.3,0.8,0,1L6.8,10h17.7c0.4,0,0.8,0.3,0.8,0.7s-0.3,0.8-0.8,0.8H6.8l5.4,5.4
	c0.3,0.3,0.3,0.8,0,1.1c-0.3,0.3-0.8,0.3-1.1,0l-6.6-6.6c-0.3-0.3-0.3-0.8,0-1L11.1,3.6z"/>
<image style="overflow:visible;enable-background:new    ;" width="23" height="18" xlink:href="C056C29.jpeg"  transform="matrix(0.9999 0 0 0.9999 32 3)">
</image>
<g>
	<g>
		<path class="st0" d="M62.3,35.8c0.1,0.1,0.2,0.2,0.2,0.4s-0.1,0.3-0.2,0.4c-0.2,0.2-0.6,0.2-0.8,0l-7-7l-7,7
			c-0.2,0.2-0.6,0.2-0.8,0s-0.2-0.6,0-0.8l7.4-7.4c0.2-0.2,0.6-0.2,0.8,0L62.3,35.8z"/>
	</g>
</g>
<g>
	<g>
		<path class="st0" d="M27.6,29.2c-0.1-0.1-0.2-0.2-0.2-0.4s0.1-0.3,0.2-0.4c0.2-0.2,0.6-0.2,0.8,0l7,7l7-7c0.2-0.2,0.6-0.2,0.8,0
			s0.2,0.6,0,0.8l-7.4,7.4c-0.2,0.2-0.6,0.2-0.8,0L27.6,29.2z"/>
	</g>
</g>
<g>
	<g>
		<path class="st0" d="M23.8,24.7c0.1-0.1,0.2-0.2,0.4-0.2s0.3,0.1,0.4,0.2c0.2,0.2,0.2,0.6,0,0.8l-7,7l7,7c0.2,0.2,0.2,0.6,0,0.8
			s-0.6,0.2-0.8,0l-7.4-7.4c-0.2-0.2-0.2-0.6,0-0.8L23.8,24.7z"/>
	</g>
</g>
<g>
	<g>
		<path class="st0" d="M5.1,40.3c-0.1,0.1-0.2,0.2-0.4,0.2c-0.2,0-0.3-0.1-0.4-0.2c-0.2-0.2-0.2-0.6,0-0.8l7-7l-7-7
			c-0.2-0.2-0.2-0.6,0-0.8c0.2-0.2,0.6-0.2,0.8,0l7.4,7.4c0.2,0.2,0.2,0.6,0,0.8L5.1,40.3z"/>
	</g>
</g>
<g>
	<path d="M123.5,133.4c0-0.1,0-0.2,0-0.3c0,0,0-0.1-0.1-0.1l-4.1-4.1c-0.1-0.1-0.3-0.1-0.5,0s-0.1,0.3,0,0.5l3.5,3.5H115
		c-0.2,0-0.3,0.2-0.3,0.3s0.2,0.3,0.3,0.3h7.3l-3.5,3.5c-0.1,0.1-0.1,0.3,0,0.5c0.1,0.1,0.2,0.1,0.2,0.1s0.2,0,0.2-0.1l4.1-4.1
		C123.4,133.5,123.5,133.5,123.5,133.4z"/>
	<path d="M117.4,135c-0.2,0-0.3,0.2-0.3,0.3v5.4h-3.4v-12.9c0-0.1-0.1-0.3-0.2-0.3l-5.4-1.7h9v5.4c0,0.2,0.2,0.3,0.3,0.3
		c0.2,0,0.3-0.2,0.3-0.3v-5.8c0-0.2-0.2-0.3-0.3-0.3h-11.5l0,0c0,0,0,0-0.1,0h-0.1l0,0l0,0l0,0c0,0,0,0.1-0.1,0.1l0,0v0.1v15.6v0.1
		l0,0c0,0,0,0,0,0.1l0,0c0,0,0,0,0.1,0l0,0l0,0l7.5,2.4h0.1c0.1,0,0.1,0,0.2-0.1s0.1-0.2,0.1-0.3v-2h3.7c0.2,0,0.3-0.2,0.3-0.3V135
		C117.7,135.2,117.6,135,117.4,135z M113,143l-6.8-2.2V126l6.8,2.2V143z"/>
</g>
<circle class="st1" cx="77.3" cy="54.3" r="8.8"/>
<circle class="st1" cx="55.3" cy="54.3" r="8.8"/>
<circle class="st0" cx="55.3" cy="54.3" r="4.4"/>
<rect x="25" y="46" class="st1" width="17" height="17"/>
<rect x="4" y="46" class="st1" width="17" height="17"/>
<rect x="7.9" y="49.9" class="st0" width="9.1" height="9.1"/>
<path d="M145.3,133.4c0-4.8-3.9-8.8-8.8-8.8s-8.8,3.9-8.8,8.8c0,2.6,1.1,4.9,2.8,6.5l0,0l0.3,0.2c0,0,0,0,0.1,0
	c0.2,0.1,0.3,0.2,0.5,0.4c0.1,0,0.1,0.1,0.2,0.1c0.2,0.1,0.3,0.2,0.5,0.3c0,0,0.1,0,0.1,0.1c0.2,0.1,0.4,0.2,0.6,0.3c0,0,0,0,0,0
	c0.7,0.3,1.4,0.5,2.1,0.7c0,0,0,0,0.1,0c0.2,0,0.5,0.1,0.7,0.1c0,0,0.1,0,0.1,0c0.2,0,0.5,0,0.7,0c0.2,0,0.5,0,0.7,0
	c0,0,0.1,0,0.1,0c0.2,0,0.5-0.1,0.7-0.1c0,0,0,0,0.1,0c0.7-0.1,1.4-0.4,2.1-0.7c0,0,0,0,0.1,0c0.2-0.1,0.4-0.2,0.6-0.3
	c0,0,0.1-0.1,0.1-0.1c0.2-0.1,0.3-0.2,0.5-0.3c0.1,0,0.1-0.1,0.2-0.1c0.1-0.1,0.3-0.2,0.4-0.3c0,0,0.1,0,0.1-0.1l0.3-0.2l0,0
	C144.2,138.3,145.3,136,145.3,133.4z M128.4,133.4c0-4.5,3.6-8.1,8.1-8.1s8.1,3.6,8.1,8.1c0,2.4-1.1,4.6-2.7,6.1
	c-0.1-0.1-0.2-0.1-0.3-0.2l-2.7-1.4c-0.2-0.1-0.4-0.4-0.4-0.6v-0.9c0.1-0.1,0.1-0.2,0.2-0.3c0.3-0.5,0.6-1,0.8-1.6
	c0.4-0.2,0.7-0.6,0.7-1v-1.1c0-0.3-0.1-0.5-0.3-0.8v-1.5c0-0.2,0.1-1.1-0.6-1.9c-0.6-0.7-1.5-1-2.8-1s-2.2,0.3-2.8,1
	c-0.7,0.8-0.6,1.7-0.6,1.9v1.5c-0.2,0.2-0.3,0.5-0.3,0.8v1.1c0,0.4,0.2,0.7,0.4,0.9c0.3,1,0.8,1.8,1,2v0.9c0,0.3-0.1,0.5-0.4,0.6
	l-2.5,1.4c-0.1,0-0.2,0.1-0.2,0.2C129.4,138,128.4,135.8,128.4,133.4z M141.3,140c-0.1,0.1-0.2,0.2-0.3,0.2c-0.1,0-0.1,0.1-0.2,0.1
	c-0.2,0.1-0.3,0.2-0.5,0.3c0,0-0.1,0-0.1,0.1c-0.4,0.2-0.7,0.3-1.1,0.5c0,0,0,0,0,0c-0.2,0.1-0.4,0.1-0.6,0.2c0,0,0,0,0,0
	c-0.2,0.1-0.4,0.1-0.6,0.1c0,0,0,0,0,0c-0.2,0-0.4,0.1-0.6,0.1c0,0-0.1,0-0.1,0c-0.2,0-0.4,0-0.6,0c-0.2,0-0.4,0-0.6,0
	c0,0-0.1,0-0.1,0c-0.2,0-0.4,0-0.6-0.1c0,0,0,0,0,0c-0.4-0.1-0.8-0.2-1.2-0.3c0,0,0,0,0,0c-0.2-0.1-0.4-0.1-0.6-0.2c0,0,0,0,0,0
	c-0.2-0.1-0.4-0.2-0.5-0.3c0,0,0,0-0.1,0c-0.2-0.1-0.3-0.2-0.5-0.3c0,0-0.1-0.1-0.1-0.1c-0.1-0.1-0.3-0.2-0.4-0.3c0,0,0,0,0,0
	c0,0,0,0,0,0l2.5-1.4c0.4-0.2,0.7-0.7,0.7-1.2l0-1.1l-0.1-0.1c0,0-0.7-0.8-1-2l0-0.1l-0.1-0.1c-0.2-0.1-0.2-0.3-0.2-0.4v-1.1
	c0-0.1,0.1-0.3,0.2-0.4l0.1-0.1V130l0,0c0,0-0.1-0.8,0.4-1.4c0.5-0.5,1.3-0.8,2.3-0.8c1.1,0,1.9,0.3,2.3,0.8
	c0.5,0.6,0.5,1.4,0.5,1.4l0,1.8l0.1,0.1c0.1,0.1,0.2,0.2,0.2,0.4v1.1c0,0.2-0.2,0.4-0.4,0.5l-0.2,0l-0.1,0.2
	c-0.2,0.6-0.5,1.1-0.8,1.6c-0.1,0.1-0.2,0.2-0.2,0.3l-0.1,0.1v1.2c0,0.5,0.3,1,0.7,1.2l2.7,1.4c0,0,0,0,0.1,0
	C141.3,139.9,141.3,140,141.3,140z"/>
</svg>
